<?xml version="1.0" encoding="UTF-8"?>
<!-- Generator: Adobe Illustrator 27.8.1, SVG Export Plug-In . SVG Version: 6.00 Build 0)  -->
<svg xmlns="http://www.w3.org/2000/svg" xmlns:xlink="http://www.w3.org/1999/xlink" version="1.1" id="Layer_2_00000125600241509369197300000016462671306685598903_" x="0px" y="0px" viewBox="0 0 500 266.8" style="enable-background:new 0 0 500 266.8;" xml:space="preserve">
<style type="text/css">
	.st0{fill:#FFFFFF;}
	.st1{fill:#E30613;}
</style>
<rect x="18.5" y="10.8" class="st0" width="37.5" height="37.5"></rect>
<g id="chosen_finb">
	<g>
		<g>
			<path class="st1" d="M65.3,52.4c0.2-5.1,3.7-9.2,8.4-10.4l6.7-42H8.5C3.9,0,0.1,3.8,0.1,8.4v70L65.3,52.4L65.3,52.4z M24.6,25.5     h9.3v-9.3h8.4v9.3h9.3v8.4h-9.3v9.3h-8.4v-9.3h-9.3C24.6,33.9,24.6,25.5,24.6,25.5z"></path>
			<path class="st1" d="M185.1,125.3c1.3-0.5,2.2-1.3,2.8-2.5c0.5-0.8,0.8-1.9,0.8-2.9c0-2.2-0.8-3.8-2.5-4.6     c-1.6-0.7-4.1-1.2-7.4-1.2h-7.4v11.8h8.4C182.2,125.9,184,125.7,185.1,125.3L185.1,125.3z"></path>
			<path class="st1" d="M188.2,134.1c-1.6-1.1-4-1.5-7.2-1.5h-9.5v13.2h9.9c6.2,0,9.3-2.2,9.3-6.7     C190.7,136.8,189.9,135,188.2,134.1L188.2,134.1z"></path>
			<path class="st1" d="M209,0H89.7l-6.9,43.4c3.1,2,5.1,5.4,5.1,9.4v0.6l52.8,27.3c1.9-1.5,4.4-2.5,6.9-2.5     c6.2,0,11.3,5.1,11.3,11.3s-5.1,11.3-11.3,11.3s-11.3-5.1-11.3-11.3v-0.7L83.6,61.6c-1.9,1.5-4.3,2.5-7.1,2.5     c-3.1,0-5.8-1.2-7.9-3.2L0.1,88.2v66.4c0,4.6,3.8,8.4,8.4,8.4H209c4.6,0,8.4-3.8,8.4-8.4V8.4C217.4,3.8,213.6,0,209,0z      M132.8,146.4c-1.4,2.1-3.5,3.9-6.2,5.1s-5.9,1.9-9.7,1.9c-4.5,0-8.1-0.8-11.1-2.5c-2-1.2-3.8-2.8-5.1-4.8c-1.3-2-1.9-4-1.9-5.9     c0-1.1,0.3-2,1.2-2.8c0.8-0.8,1.8-1.2,2.9-1.2c0.9,0,1.8,0.4,2.5,0.9s1.3,1.5,1.8,2.7c0.6,1.4,1.2,2.6,1.9,3.6     c0.7,0.9,1.7,1.8,2.8,2.4s2.8,0.9,4.8,0.9c2.7,0,4.9-0.6,6.6-1.9s2.6-2.8,2.6-4.7c0-1.5-0.5-2.7-1.4-3.6s-2.1-1.6-3.5-2.1     s-3.4-1.1-5.8-1.5c-3.3-0.7-6-1.6-8.1-2.7c-2.2-1.1-3.9-2.3-5.2-4.1s-1.9-4-1.9-6.6s0.7-4.7,2-6.6c1.4-1.9,3.3-3.4,5.9-4.5     s5.7-1.5,9.1-1.5c2.8,0,5.2,0.3,7.2,1.1s3.8,1.7,5.1,2.7c1.3,1.2,2.4,2.3,2.9,3.7s0.9,2.5,0.9,3.7c0,1.1-0.4,2.1-1.2,2.9     s-1.8,1.3-2.9,1.3c-1.1,0-1.9-0.2-2.3-0.8c-0.6-0.5-1.2-1.4-1.8-2.6c-0.8-1.8-1.8-3.1-2.9-4s-3.1-1.4-5.5-1.4s-4.2,0.5-5.8,1.5     c-1.4,1.1-2.1,2.2-2.1,3.8c0,0.9,0.2,1.7,0.7,2.3s1.2,1.2,2,1.7s1.8,0.8,2.6,1.1s2.3,0.7,4.3,1.2c2.6,0.6,4.8,1.3,6.9,2     s3.9,1.7,5.3,2.6c1.4,1.1,2.6,2.4,3.4,3.9s1.2,3.5,1.2,5.8C134.9,141.7,134.2,144.2,132.8,146.4L132.8,146.4z M152.2,147.7     c0,1.9-0.5,3.3-1.3,4.2c-0.8,0.9-2,1.4-3.4,1.4c-1.3,0-2.5-0.5-3.3-1.4s-1.3-2.4-1.3-4.1v-36.2c0-1.9,0.5-3.3,1.3-4.1     c0.8-0.9,1.9-1.4,3.3-1.4s2.5,0.5,3.4,1.4c0.8,0.9,1.3,2.3,1.3,4.2V147.7L152.2,147.7z M198,146.5c-1.3,2-3.1,3.5-5.3,4.5     c-1.4,0.6-2.9,0.9-4.7,1.2s-3.9,0.4-6.2,0.4h-13.9c-2,0-3.4-0.5-4.2-1.3c-0.8-0.9-1.3-2.4-1.3-4.2v-34c0-2,0.5-3.4,1.3-4.3     c0.8-0.8,2.2-1.3,4.2-1.3h14.7c2.1,0,4,0.1,5.6,0.3c1.5,0.2,3.1,0.8,4.2,1.5c1.1,0.6,2,1.4,2.8,2.5c0.8,0.9,1.4,2,1.9,3.3     c0.5,1.2,0.6,2.5,0.6,3.8c0,4.6-2.2,7.9-6.8,10c6,1.9,8.9,5.5,8.9,11.1C200,142.2,199.3,144.5,198,146.5L198,146.5z"></path>
		</g>
		<g>
			<path d="M119.1,185.4c-1.7-1.2-3.8-1.9-6.5-1.9c-1.1,0-2.1,0.1-3.2,0.4c-1.1,0.2-1.9,0.6-2.7,1.1c-0.8,0.5-1.4,1.2-1.9,2     s-0.7,1.9-0.7,3.1s0.3,2.1,1.1,2.8c0.7,0.7,1.7,1.3,2.7,1.8c1.2,0.5,2.5,0.8,3.9,1.2c1.4,0.4,2.9,0.6,4.5,0.9s2.9,0.8,4.5,1.3     c1.4,0.5,2.7,1.2,3.9,1.9c1.2,0.8,2.1,1.9,2.7,3.1c0.7,1.3,1.1,2.8,1.1,4.7c0,2-0.5,3.8-1.3,5.2c-0.9,1.4-2,2.6-3.4,3.5     s-2.9,1.5-4.7,2c-1.8,0.4-3.5,0.6-5.2,0.6c-2.1,0-4.1-0.2-6-0.8s-3.5-1.3-4.9-2.5c-1.4-1.1-2.6-2.5-3.4-4.1     c-0.8-1.6-1.3-3.6-1.3-6h4.8c0,1.6,0.3,2.9,0.9,4.1s1.4,2.1,2.5,2.8c1.1,0.7,2.2,1.3,3.5,1.6c1.3,0.4,2.7,0.6,4.1,0.6     c1.2,0,2.2-0.1,3.4-0.4s2.2-0.6,3.1-1.1c0.9-0.5,1.7-1.2,2.2-2.1s0.8-2,0.8-3.4c0-1.3-0.3-2.4-1.1-3.2s-1.7-1.5-2.7-2     c-1.2-0.5-2.5-0.9-3.9-1.3c-1.4-0.4-2.9-0.6-4.5-0.9s-2.9-0.7-4.5-1.2c-1.4-0.5-2.7-1.1-3.9-1.8s-2.1-1.6-2.7-2.8     c-0.7-1.2-1.1-2.6-1.1-4.4c0-1.9,0.3-3.5,1.2-4.9s1.8-2.6,3.1-3.4c1.3-0.9,2.7-1.5,4.3-2c1.7-0.5,3.3-0.7,5.1-0.7     c2,0,3.8,0.2,5.4,0.7c1.7,0.5,3.1,1.2,4.3,2.2c1.3,0.9,2.2,2.2,2.9,3.8s1.2,3.3,1.2,5.4h-4.7     C121.7,188.6,120.8,186.6,119.1,185.4L119.1,185.4z"></path>
			<path d="M156.1,218.1l-5.5-21.8h-0.1l-5.5,21.8h-4.8l-8.8-27.3h4.9l6.2,22.4h0.1l5.5-22.4h4.9l5.8,22.4h0.1l6.1-22.4h4.7     l-8.7,27.3H156.1z"></path>
			<path d="M174.2,185.7v-5.5h4.5v5.5H174.2z M178.7,190.7v27.4h-4.5v-27.4H178.7z"></path>
			<path d="M189,212c0.5,0.7,0.9,1.2,1.6,1.6c0.7,0.4,1.5,0.7,2.4,0.8c0.8,0.2,1.8,0.2,2.7,0.2c0.7,0,1.4,0,2.2-0.1s1.5-0.4,2.1-0.6     c0.7-0.2,1.2-0.7,1.6-1.3s0.6-1.3,0.6-2.1c0-1.2-0.5-2-1.3-2.7c-0.9-0.6-2-1.1-3.3-1.4s-2.8-0.7-4.4-1.1     c-1.5-0.4-2.9-0.7-4.4-1.3c-1.3-0.6-2.5-1.3-3.3-2.4c-0.9-0.9-1.3-2.4-1.3-4.1c0-1.4,0.4-2.6,0.9-3.5s1.4-1.8,2.4-2.5     c0.9-0.6,2.1-1.1,3.3-1.4s2.5-0.5,3.6-0.5c1.5,0,2.9,0.1,4.2,0.4s2.5,0.7,3.5,1.4c1.1,0.7,1.8,1.5,2.4,2.7     c0.6,1.1,0.9,2.5,1.1,4.1h-4.5c-0.1-0.9-0.4-1.6-0.7-2.2s-0.9-1.1-1.5-1.4s-1.3-0.6-2-0.8c-0.7-0.1-1.4-0.2-2.2-0.2     c-0.7,0-1.4,0-2,0.1c-0.7,0.1-1.3,0.2-1.9,0.6c-0.6,0.2-1.1,0.6-1.4,1.1s-0.6,1.1-0.6,1.8c0,0.8,0.2,1.4,0.8,1.9     c0.6,0.5,1.3,0.9,2.1,1.3s1.8,0.6,2.8,0.8s2.1,0.5,3.2,0.7c1.2,0.2,2.2,0.6,3.3,0.9s2,0.8,2.8,1.4s1.5,1.3,2,2.2     c0.5,0.9,0.8,2,0.8,3.3c0,1.6-0.4,3.1-1.1,4.1c-0.7,1.1-1.6,2-2.7,2.7c-1.1,0.7-2.4,1.2-3.8,1.4s-2.8,0.4-4.1,0.4     c-1.5,0-2.9-0.1-4.4-0.5s-2.6-0.8-3.6-1.5c-1.1-0.7-1.9-1.6-2.6-2.8c-0.6-1.2-0.9-2.6-1.1-4.4h4.5     C188.3,210.5,188.6,211.3,189,212L189,212z"></path>
			<path d="M215.5,212c0.5,0.7,0.9,1.2,1.6,1.6c0.7,0.4,1.5,0.7,2.4,0.8c0.8,0.2,1.8,0.2,2.7,0.2c0.7,0,1.4,0,2.2-0.1     s1.5-0.4,2.1-0.6c0.7-0.2,1.2-0.7,1.6-1.3s0.6-1.3,0.6-2.1c0-1.2-0.5-2-1.3-2.7c-0.9-0.6-2-1.1-3.3-1.4s-2.8-0.7-4.4-1.1     c-1.5-0.4-2.9-0.7-4.4-1.3c-1.3-0.6-2.5-1.3-3.3-2.4c-0.9-0.9-1.3-2.4-1.3-4.1c0-1.4,0.4-2.6,0.9-3.5s1.4-1.8,2.4-2.5     c0.9-0.6,2.1-1.1,3.3-1.4s2.5-0.5,3.6-0.5c1.5,0,2.9,0.1,4.2,0.4s2.5,0.7,3.5,1.4c1.1,0.7,1.8,1.5,2.4,2.7     c0.6,1.1,0.9,2.5,1.1,4.1h-4.5c-0.1-0.9-0.4-1.6-0.7-2.2s-0.9-1.1-1.5-1.4s-1.3-0.6-2-0.8c-0.7-0.1-1.4-0.2-2.2-0.2     c-0.7,0-1.4,0-2,0.1c-0.7,0.1-1.3,0.2-1.9,0.6c-0.6,0.2-1.1,0.6-1.4,1.1s-0.6,1.1-0.6,1.8c0,0.8,0.2,1.4,0.8,1.9     c0.6,0.5,1.3,0.9,2.1,1.3s1.8,0.6,2.8,0.8s2.1,0.5,3.2,0.7c1.2,0.2,2.2,0.6,3.3,0.9s2,0.8,2.8,1.4s1.5,1.3,2,2.2     c0.5,0.9,0.8,2,0.8,3.3c0,1.6-0.4,3.1-1.1,4.1c-0.7,1.1-1.6,2-2.7,2.7c-1.1,0.7-2.4,1.2-3.8,1.4s-2.8,0.4-4.1,0.4     c-1.5,0-2.9-0.1-4.4-0.5s-2.6-0.8-3.6-1.5c-1.1-0.7-1.9-1.6-2.6-2.8c-0.6-1.2-0.9-2.6-1.1-4.4h4.5     C214.8,210.5,215,211.3,215.5,212L215.5,212z"></path>
			<path d="M259.3,180.2v37.9h-4.9v-37.8L259.3,180.2L259.3,180.2L259.3,180.2z"></path>
			<path d="M271.2,190.7v4.4h0.1c1.9-3.3,4.8-4.9,9-4.9c1.8,0,3.3,0.2,4.5,0.7c1.2,0.5,2.1,1.2,2.9,2.1c0.7,0.9,1.3,1.9,1.5,3.2     c0.4,1.2,0.5,2.6,0.5,4v18h-4.5v-18.6c0-1.6-0.5-3.1-1.5-4c-0.9-0.9-2.4-1.5-4.1-1.5c-1.4,0-2.6,0.2-3.5,0.6     c-1.1,0.5-1.9,1.1-2.5,1.8c-0.7,0.8-1.2,1.6-1.5,2.7c-0.4,1.1-0.5,2.2-0.5,3.4v15.6h-4.5v-27.4L271.2,190.7L271.2,190.7z"></path>
			<path d="M299.9,212c0.5,0.7,0.9,1.2,1.6,1.6c0.7,0.4,1.5,0.7,2.4,0.8c0.8,0.2,1.8,0.2,2.7,0.2c0.7,0,1.4,0,2.2-0.1     c0.8-0.1,1.5-0.4,2.1-0.6c0.7-0.2,1.2-0.7,1.6-1.3s0.6-1.3,0.6-2.1c0-1.2-0.5-2-1.3-2.7c-0.9-0.6-2-1.1-3.3-1.4     c-1.3-0.4-2.8-0.7-4.4-1.1c-1.5-0.4-2.9-0.7-4.4-1.3c-1.3-0.6-2.5-1.3-3.3-2.4c-0.9-0.9-1.3-2.4-1.3-4.1c0-1.4,0.4-2.6,0.9-3.5     s1.4-1.8,2.4-2.5c0.9-0.6,2.1-1.1,3.3-1.4s2.5-0.5,3.6-0.5c1.5,0,2.9,0.1,4.4,0.4c1.3,0.2,2.5,0.7,3.5,1.4     c1.1,0.7,1.8,1.5,2.5,2.7c0.6,1.1,0.9,2.5,1.1,4.1h-4.5c-0.1-0.9-0.4-1.6-0.7-2.2c-0.4-0.6-0.9-1.1-1.5-1.4s-1.3-0.6-2-0.8     c-0.7-0.1-1.4-0.2-2.2-0.2c-0.7,0-1.4,0-2,0.1c-0.7,0.1-1.3,0.2-1.9,0.6c-0.6,0.2-1.1,0.6-1.4,1.1s-0.6,1.1-0.6,1.8     c0,0.8,0.2,1.4,0.8,1.9c0.6,0.5,1.3,0.9,2.1,1.3c0.8,0.4,1.8,0.6,2.8,0.8s2.1,0.5,3.2,0.7c1.2,0.2,2.2,0.6,3.3,0.9s2,0.8,2.8,1.4     s1.5,1.3,2,2.2c0.5,0.9,0.8,2,0.8,3.3c0,1.6-0.4,3.1-1.1,4.1s-1.6,2-2.7,2.7s-2.4,1.2-3.8,1.4s-2.8,0.4-4.1,0.4     c-1.5,0-2.9-0.1-4.4-0.5c-1.4-0.4-2.6-0.8-3.6-1.5s-1.9-1.6-2.6-2.8c-0.6-1.2-0.9-2.6-1.1-4.4h4.5     C299.2,210.5,299.4,211.3,299.9,212L299.9,212z"></path>
			<path d="M334.6,190.7v4h-5.4v16.9c0,0.6,0,0.9,0.1,1.3s0.2,0.6,0.5,0.7c0.2,0.2,0.6,0.2,1.1,0.4c0.5,0,1.1,0.1,1.8,0.1h2.1v4     h-3.4c-1.2,0-2.1-0.1-2.9-0.2c-0.8-0.1-1.5-0.5-2-0.8c-0.5-0.5-0.9-1.1-1.2-1.8c-0.2-0.8-0.4-1.8-0.4-3.1v-17.4h-4.7v-4h4.7v-8.2     h4.5v8.2h5.3L334.6,190.7L334.6,190.7L334.6,190.7z"></path>
			<path d="M339.9,185.7v-5.5h4.5v5.5H339.9z M344.4,190.7v27.4h-4.5v-27.4H344.4z"></path>
			<path d="M363.1,190.7v4h-5.4v16.9c0,0.6,0,0.9,0.1,1.3s0.2,0.6,0.5,0.7c0.2,0.2,0.6,0.2,1.1,0.4c0.5,0,1.1,0.1,1.8,0.1h2.1v4     h-3.4c-1.2,0-2.1-0.1-2.9-0.2c-0.8-0.1-1.5-0.5-2-0.8c-0.5-0.5-0.9-1.1-1.2-1.8c-0.2-0.8-0.4-1.8-0.4-3.1v-17.4h-4.7v-4h4.7v-8.2     h4.5v8.2h5.3L363.1,190.7L363.1,190.7L363.1,190.7z"></path>
			<path d="M386.5,218.1v-4.4h-0.1c-0.9,1.6-2.1,2.9-3.6,3.8c-1.5,0.8-3.2,1.2-5.3,1.2c-1.8,0-3.3-0.2-4.5-0.7     c-1.2-0.5-2.1-1.2-2.9-2s-1.3-1.9-1.5-3.2c-0.4-1.2-0.5-2.6-0.5-4v-18h4.5v18.6c0,1.6,0.5,3.1,1.5,4c0.9,0.9,2.4,1.5,4.1,1.5     c1.4,0,2.6-0.2,3.5-0.6c1.1-0.5,1.9-1.1,2.5-1.8c0.7-0.8,1.2-1.6,1.5-2.7c0.4-1.1,0.5-2.2,0.5-3.4V191h4.5v27.1H386.5     L386.5,218.1z"></path>
			<path d="M409.2,190.7v4h-5.4v16.9c0,0.6,0,0.9,0.1,1.3s0.2,0.6,0.5,0.7c0.2,0.2,0.6,0.2,1.1,0.4c0.5,0,1.1,0.1,1.8,0.1h2.1v4H406     c-1.2,0-2.1-0.1-2.9-0.2c-0.8-0.1-1.5-0.5-2-0.8c-0.5-0.5-0.9-1.1-1.2-1.8c-0.2-0.8-0.4-1.8-0.4-3.1v-17.4h-4.7v-4h4.7v-8.2h4.5     v8.2h5.3L409.2,190.7L409.2,190.7L409.2,190.7z"></path>
			<path d="M433.6,216.3c-2,1.5-4.6,2.4-7.8,2.4c-2.2,0-4.1-0.4-5.6-1.1c-1.6-0.7-2.9-1.6-4-2.9s-1.9-2.8-2.5-4.6s-0.8-3.6-0.9-5.8     c0-2.1,0.4-4,0.9-5.8s1.5-3.2,2.7-4.5s2.5-2.2,4.1-2.9c1.5-0.7,3.3-1.1,5.2-1.1c2.5,0,4.5,0.5,6,1.5c1.6,1.1,2.9,2.2,3.9,3.9     c0.9,1.5,1.6,3.3,2,5.1c0.4,1.9,0.5,3.5,0.5,5.3h-20.5c0,1.2,0.1,2.4,0.5,3.4s0.8,2,1.5,2.8s1.6,1.5,2.7,2s2.4,0.7,3.9,0.7     c1.9,0,3.4-0.5,4.7-1.3c1.2-0.9,2-2.2,2.4-4h4.5C436.9,212.5,435.6,214.8,433.6,216.3L433.6,216.3z M432.4,198.7     c-0.4-0.9-0.9-1.8-1.6-2.5s-1.5-1.2-2.5-1.6c-0.9-0.4-2-0.6-3.1-0.6c-1.2,0-2.2,0.2-3.2,0.6c-0.9,0.4-1.8,0.9-2.4,1.6     c-0.7,0.7-1.2,1.5-1.5,2.5s-0.6,1.9-0.7,2.9h15.6C433.1,200.7,432.9,199.6,432.4,198.7L432.4,198.7z"></path>
			<path d="M456.7,198.7c0.6-1.8,1.4-3.3,2.6-4.6s2.5-2.4,4.2-3.1c1.6-0.7,3.5-1.1,5.8-1.1s4.1,0.4,5.8,1.1c1.6,0.7,3.1,1.8,4.1,3.1     c1.2,1.3,2,2.8,2.6,4.6s0.8,3.6,0.8,5.6s-0.2,3.9-0.8,5.6s-1.4,3.3-2.6,4.5c-1.2,1.3-2.5,2.4-4.1,3.1s-3.5,1.1-5.8,1.1     c-2.1,0-4-0.4-5.8-1.1c-1.6-0.7-3.1-1.8-4.2-3.1s-2-2.8-2.6-4.5c-0.6-1.8-0.8-3.6-0.8-5.6S456.2,200.4,456.7,198.7z M461.4,208.8     c0.5,1.3,1.1,2.4,1.8,3.2c0.8,0.8,1.6,1.5,2.7,2s2.1,0.7,3.3,0.7s2.2-0.2,3.3-0.7s2-1.2,2.7-2c0.8-0.8,1.4-2,1.8-3.2     c0.5-1.3,0.7-2.8,0.7-4.5s-0.2-3.2-0.7-4.5s-1.1-2.4-1.8-3.3c-0.8-0.9-1.6-1.5-2.7-2s-2.1-0.7-3.3-0.7s-2.2,0.2-3.3,0.7     s-2,1.2-2.7,2c-0.8,0.9-1.4,2-1.8,3.3c-0.5,1.3-0.7,2.8-0.7,4.5C460.7,206.1,460.9,207.5,461.4,208.8z"></path>
			<path d="M485,194.7v-4h4.6v-4.1c0-2.2,0.6-3.9,1.9-5.1s3.2-1.8,5.6-1.8c0.5,0,0.9,0,1.4,0.1c0.6,0.1,1.1,0.2,1.4,0.4v3.9     c-0.4-0.1-0.8-0.2-1.3-0.2s-0.9-0.1-1.3-0.1c-1.1,0-2,0.2-2.6,0.6c-0.6,0.5-0.9,1.3-0.9,2.5v3.9h5.3v4h-5.1v23.4h-4.5v-23.4     L485,194.7L485,194.7z"></path>
			<path d="M113.8,228.5h2.6c0.9,0,1.9,0.1,2.8,0.1c0.9,0.1,1.8,0.2,2.6,0.4c0.8,0.2,1.5,0.5,2,0.8c1.2,0.7,2.2,1.8,3.2,3.1     c0.8,1.3,1.3,2.9,1.3,4.8c0,2-0.5,3.8-1.4,5.2c-0.9,1.4-2.3,2.6-4.2,3.3v0.1c2.3,0.5,4.1,1.5,5.3,3.2s1.9,3.6,1.9,5.9     c0,1.4-0.2,2.7-0.7,4s-1.2,2.5-2.2,3.4c-0.9,1.1-2.1,1.8-3.7,2.5c-1.4,0.6-3.1,0.9-4.9,0.9H100v-37.8L113.8,228.5L113.8,228.5     L113.8,228.5z M115.2,244.7c2.8,0,4.9-0.5,6.2-1.5c1.3-1.1,1.9-2.5,1.9-4.5c0-1.3-0.2-2.4-0.6-3.2c-0.5-0.8-1.1-1.4-1.8-1.8     c-0.7-0.5-1.7-0.7-2.6-0.8c-0.9-0.1-2-0.2-3.1-0.2h-10.1v12L115.2,244.7L115.2,244.7z M117.7,262c2.2,0,4-0.6,5.2-1.8     c1.3-1.2,1.9-2.8,1.9-4.9c0-1.2-0.2-2.2-0.7-3.1c-0.5-0.8-1.1-1.4-1.9-1.9c-0.7-0.5-1.7-0.8-2.6-1.1c-0.9-0.2-2-0.2-3.1-0.2H105     v13.1h12.7L117.7,262L117.7,262z"></path>
			<path d="M135.9,234v-5.5h4.5v5.5H135.9z M140.4,238.9v27.4h-4.5v-27.4H140.4z"></path>
			<path d="M146.8,246.9c0.6-1.8,1.4-3.3,2.6-4.6s2.5-2.4,4.2-3.1c1.6-0.7,3.5-1.1,5.8-1.1s4.1,0.4,5.8,1.1c1.6,0.7,3.1,1.8,4.1,3.1     c1.2,1.3,2,2.8,2.6,4.6s0.8,3.6,0.8,5.6s-0.2,3.9-0.8,5.6s-1.4,3.3-2.6,4.5c-1.2,1.3-2.5,2.4-4.1,3.1s-3.5,1.1-5.8,1.1     c-2.1,0-4-0.4-5.8-1.1c-1.6-0.7-3.1-1.8-4.2-3.1s-2-2.8-2.6-4.5c-0.6-1.8-0.8-3.6-0.8-5.6S146.2,248.7,146.8,246.9z M151.4,257.1     c0.5,1.3,1.1,2.4,1.8,3.2c0.8,0.8,1.6,1.5,2.7,2c1.1,0.5,2.1,0.7,3.3,0.7s2.2-0.2,3.3-0.7s2-1.2,2.7-2c0.8-0.8,1.4-2,1.8-3.2     c0.5-1.3,0.7-2.8,0.7-4.5s-0.2-3.2-0.7-4.5c-0.5-1.3-1.1-2.4-1.8-3.3c-0.8-0.9-1.6-1.5-2.7-2c-1.1-0.5-2.1-0.7-3.3-0.7     s-2.2,0.2-3.3,0.7s-2,1.2-2.7,2c-0.8,0.9-1.4,2-1.8,3.3c-0.5,1.3-0.7,2.8-0.7,4.5C150.8,254.2,150.9,255.8,151.4,257.1z"></path>
			<path d="M178.1,234v-5.5h4.5v5.5H178.1z M182.6,238.9v27.4h-4.5v-27.4H182.6z"></path>
			<path d="M193.9,238.9v4.4h0.1c1.9-3.3,4.8-4.9,8.9-4.9c1.8,0,3.3,0.2,4.5,0.7c1.2,0.5,2.1,1.2,2.9,2.1c0.7,0.9,1.3,1.9,1.5,3.2     c0.4,1.2,0.5,2.6,0.5,4v18h-4.5v-18.6c0-1.6-0.5-3.1-1.5-4c-0.9-0.9-2.4-1.5-4.1-1.5c-1.4,0-2.6,0.2-3.5,0.6     c-1.1,0.5-1.9,1.1-2.5,1.8c-0.7,0.8-1.2,1.6-1.5,2.7c-0.4,1.1-0.5,2.2-0.5,3.4v15.4h-4.5v-27.4h4.1L193.9,238.9L193.9,238.9z"></path>
			<path d="M216.2,242.9v-4h4.6v-4.1c0-2.2,0.6-3.9,1.9-5.1s3.2-1.8,5.6-1.8c0.5,0,0.9,0,1.4,0.1c0.6,0.1,1.1,0.2,1.4,0.4v3.9     c-0.4-0.1-0.8-0.2-1.3-0.2s-0.9-0.1-1.3-0.1c-1.1,0-2,0.2-2.6,0.6c-0.6,0.5-0.9,1.3-0.9,2.5v3.9h5.3v4h-5.3v23.4h-4.5v-23.4     L216.2,242.9L216.2,242.9z"></path>
			<path d="M234.1,246.9c0.6-1.8,1.4-3.3,2.6-4.6s2.5-2.4,4.2-3.1c1.6-0.7,3.5-1.1,5.8-1.1s4.1,0.4,5.8,1.1c1.6,0.7,3.1,1.8,4.1,3.1     c1.2,1.3,2,2.8,2.6,4.6s0.8,3.6,0.8,5.6s-0.2,3.9-0.8,5.6s-1.4,3.3-2.6,4.5c-1.2,1.3-2.5,2.4-4.1,3.1s-3.5,1.1-5.8,1.1     c-2.1,0-4-0.4-5.8-1.1c-1.6-0.7-3.1-1.8-4.2-3.1s-2-2.8-2.6-4.5c-0.6-1.8-0.8-3.6-0.8-5.6S233.5,248.7,234.1,246.9z M238.7,257.1     c0.5,1.3,1.1,2.4,1.8,3.2c0.8,0.8,1.6,1.5,2.7,2c1.1,0.5,2.1,0.7,3.3,0.7s2.2-0.2,3.3-0.7s2-1.2,2.7-2c0.8-0.8,1.4-2,1.8-3.2     c0.5-1.3,0.7-2.8,0.7-4.5s-0.2-3.2-0.7-4.5c-0.5-1.3-1.1-2.4-1.8-3.3c-0.8-0.9-1.6-1.5-2.7-2c-1.1-0.5-2.1-0.7-3.3-0.7     s-2.2,0.2-3.3,0.7s-2,1.2-2.7,2c-0.8,0.9-1.4,2-1.8,3.3c-0.5,1.3-0.7,2.8-0.7,4.5S238.2,255.8,238.7,257.1z"></path>
			<path d="M269.2,238.9v5.8h0.1c1.1-2.2,2.5-3.9,4-4.9s3.6-1.5,6-1.5v4.8c-1.8,0-3.3,0.2-4.6,0.7s-2.4,1.2-3.1,2.1     c-0.8,0.9-1.3,2.1-1.6,3.4c-0.4,1.4-0.5,2.9-0.5,4.7v12.1h-4.5v-27.4h4.1V238.9L269.2,238.9L269.2,238.9z"></path>
			<path d="M287,238.9v4h0.1c2-3.1,4.9-4.7,8.8-4.7c1.6,0,3.2,0.4,4.6,1.1s2.4,1.9,2.9,3.6c0.9-1.5,2.1-2.6,3.6-3.4s3.2-1.2,4.9-1.2     c1.4,0,2.6,0.1,3.8,0.5c1.1,0.4,2.1,0.8,2.8,1.4c0.8,0.6,1.4,1.4,1.9,2.5s0.7,2.2,0.7,3.6v20.1h-4.5v-18c0-0.8-0.1-1.6-0.2-2.4     s-0.4-1.4-0.8-1.9c-0.4-0.6-0.9-0.9-1.6-1.3s-1.5-0.5-2.7-0.5c-2.2,0-4,0.6-5.2,1.9c-1.3,1.3-1.9,2.9-1.9,5.1v17.1h-4.5v-18     c0-0.9-0.1-1.6-0.2-2.5c-0.1-0.7-0.5-1.4-0.8-1.9c-0.4-0.6-0.9-0.9-1.5-1.3c-0.7-0.4-1.5-0.5-2.5-0.5c-1.3,0-2.5,0.2-3.4,0.8     s-1.6,1.2-2.2,1.9s-1.1,1.5-1.3,2.4s-0.4,1.4-0.4,2v17.1H283v-27.4L287,238.9L287,238.9L287,238.9z"></path>
			<path d="M348.9,266.8c-1.2,0-2.1-0.4-2.7-0.9c-0.7-0.7-1.1-1.8-1.1-3.2c-1.2,1.5-2.7,2.6-4.4,3.2c-1.6,0.7-3.4,0.9-5.3,0.9     c-1.3,0-2.4-0.1-3.5-0.4c-1.1-0.2-2-0.7-2.9-1.3s-1.5-1.4-2-2.4s-0.7-2.1-0.7-3.5c0-1.5,0.2-2.8,0.8-3.8c0.5-0.9,1.2-1.8,2.1-2.4     c0.8-0.6,1.9-1.1,2.9-1.4s2.2-0.6,3.4-0.8s2.4-0.5,3.5-0.6c1.1-0.1,2.1-0.4,2.9-0.6s1.5-0.6,2-1.1s0.7-1.1,0.7-1.9     c0-0.9-0.2-1.8-0.6-2.4s-0.8-1.1-1.4-1.4s-1.3-0.6-2-0.6c-0.7-0.1-1.4-0.1-2.1-0.1c-1.9,0-3.5,0.4-4.8,1.1     c-1.3,0.7-2,2.1-2.1,4.1h-4.5c0.1-1.6,0.5-3.2,1.1-4.4s1.5-2.1,2.6-2.8c1.1-0.7,2.2-1.3,3.6-1.5c1.4-0.4,2.8-0.5,4.4-0.5     c1.2,0,2.5,0.1,3.6,0.2c1.2,0.2,2.4,0.6,3.3,1.1c0.9,0.6,1.8,1.3,2.4,2.4c0.6,0.9,0.9,2.2,0.9,3.9V260c0,1.1,0.1,1.9,0.2,2.4     s0.6,0.7,1.3,0.7c0.4,0,0.8-0.1,1.4-0.2v3.5C351.3,266.6,350.3,266.8,348.9,266.8L348.9,266.8z M342.6,253.1     c-0.9,0.2-1.9,0.4-2.8,0.5c-1.1,0.1-2,0.2-3.1,0.5c-1.1,0.1-1.9,0.5-2.7,0.8c-0.8,0.4-1.4,0.8-2,1.5c-0.5,0.7-0.8,1.5-0.8,2.7     c0,0.7,0.1,1.4,0.5,1.9s0.7,0.9,1.2,1.3s1.1,0.6,1.6,0.7c0.7,0.1,1.3,0.2,2,0.2c1.5,0,2.7-0.2,3.8-0.6s1.9-0.9,2.6-1.5     s1.2-1.3,1.5-2s0.5-1.4,0.5-2v-4.6C344.3,252.6,343.6,252.9,342.6,253.1L342.6,253.1z"></path>
			<path d="M368.1,238.9v4h-5.4v17c0,0.6,0,0.9,0.1,1.3s0.2,0.6,0.5,0.7c0.2,0.2,0.6,0.2,1.1,0.4c0.5,0,1.1,0.1,1.8,0.1h2.1v4h-3.5     c-1.2,0-2.1-0.1-2.9-0.2s-1.5-0.5-2-0.8c-0.5-0.5-0.9-1.1-1.2-1.8c-0.2-0.8-0.4-1.8-0.4-3.1v-17.4h-4.7v-4h4.7v-8.2h4.5v8.2h5.4     L368.1,238.9L368.1,238.9L368.1,238.9z"></path>
			<path d="M373.4,234v-5.5h4.5v5.5H373.4z M377.8,238.9v27.4h-4.5v-27.4H377.8z"></path>
			<path d="M401.2,243.6c-1.2-0.9-2.6-1.4-4.6-1.4c-1.6,0-2.9,0.4-4.1,0.9c-1.1,0.6-2,1.4-2.6,2.4c-0.7,0.9-1.2,2.1-1.4,3.4     c-0.2,1.3-0.5,2.6-0.5,4c0,1.3,0.1,2.5,0.5,3.8c0.4,1.2,0.8,2.2,1.4,3.2s1.4,1.6,2.5,2.2s2.2,0.8,3.6,0.8c2.2,0,4-0.6,5.2-1.8     c1.3-1.2,2-2.8,2.4-4.9h4.6c-0.5,3.4-1.8,6-3.8,7.9c-2,1.9-4.8,2.7-8.2,2.7c-2.1,0-3.9-0.4-5.5-1.1s-2.9-1.6-4-2.8     c-1.1-1.3-1.9-2.7-2.5-4.5s-0.8-3.6-0.8-5.6s0.2-4,0.8-5.8s1.3-3.3,2.5-4.7c1.1-1.3,2.5-2.4,4-3.2c1.6-0.7,3.5-1.2,5.6-1.2     c1.5,0,3.1,0.2,4.4,0.6c1.4,0.4,2.6,0.9,3.6,1.8s1.9,1.8,2.6,2.9s1.1,2.6,1.3,4.2h-4.7C403,246,402.3,244.6,401.2,243.6     L401.2,243.6z"></path>
			<path d="M416.7,260.2c0.5,0.7,0.9,1.2,1.6,1.6c0.7,0.4,1.5,0.7,2.4,0.8c0.8,0.2,1.8,0.2,2.7,0.2c0.7,0,1.4,0,2.2-0.1     c0.8-0.1,1.5-0.4,2.1-0.6c0.7-0.2,1.2-0.7,1.6-1.3s0.6-1.3,0.6-2.1c0-1.2-0.5-2-1.3-2.7c-0.9-0.6-2-1.1-3.3-1.4     c-1.3-0.4-2.8-0.7-4.4-1.1c-1.5-0.4-2.9-0.7-4.4-1.3c-1.3-0.6-2.5-1.3-3.3-2.4c-0.9-0.9-1.3-2.4-1.3-4.1c0-1.4,0.4-2.6,0.9-3.5     s1.4-1.8,2.4-2.5c0.9-0.6,2.1-1.1,3.3-1.4s2.5-0.5,3.6-0.5c1.5,0,2.9,0.1,4.4,0.4s2.5,0.7,3.5,1.4c1.1,0.7,1.8,1.5,2.5,2.7     c0.6,1.1,0.9,2.5,1.1,4.1h-4.5c-0.1-0.9-0.4-1.6-0.7-2.2c-0.4-0.6-0.9-1.1-1.5-1.4s-1.3-0.6-2-0.8c-0.7-0.1-1.4-0.2-2.2-0.2     c-0.7,0-1.4,0-2,0.1c-0.7,0.1-1.3,0.2-1.9,0.6c-0.6,0.2-1.1,0.6-1.4,1.1s-0.6,1.1-0.6,1.8c0,0.8,0.2,1.4,0.8,1.9     c0.6,0.5,1.3,0.9,2.1,1.3c0.8,0.4,1.8,0.6,2.8,0.8s2.1,0.5,3.2,0.7c1.2,0.2,2.2,0.6,3.3,0.9s2,0.8,2.8,1.4s1.5,1.3,2,2.2     c0.5,0.9,0.8,2,0.8,3.3c0,1.6-0.4,3.1-1.1,4.1s-1.6,2-2.7,2.7s-2.4,1.2-3.8,1.4s-2.8,0.4-4.1,0.4c-1.5,0-2.9-0.1-4.4-0.5     c-1.4-0.4-2.6-0.8-3.6-1.5s-1.9-1.6-2.6-2.8c-0.6-1.2-0.9-2.6-1.1-4.4h4.5C415.9,258.7,416.2,259.6,416.7,260.2L416.7,260.2z"></path>
		</g>
	</g>
</g>
</svg>
